<svg id="Capa_1" enable-background="new 0 0 512 512" height="512" viewBox="0 0 512 512" width="512" xmlns="http://www.w3.org/2000/svg"><g><path d="m512 256c0 141.385-114.615 256-256 256-48.458 0-93.772-13.464-132.404-36.855-3.607-2.184.856-12.465-2.632-14.819-39.085-26.383-69.128-59.087-88.808-102.432-1.203-2.65-11.738-1.498-12.853-4.195-12.44-30.106-19.303-63.101-19.303-97.699 0-141.385 114.615-256 256-256s256 114.615 256 256z" fill="#ff50b5"/><path d="m466.309 233.986c0 111.973-90.772 202.745-202.745 202.745s-202.745-90.772-202.745-202.745 90.772-202.744 202.745-202.744 202.745 90.771 202.745 202.744z" fill="#ff72c3"/><path d="m478.836 310.427c0 13.653-5.775 25.268-13.836 29.573-8.061-4.305-13.836-15.92-13.836-29.573s5.775-25.268 13.836-29.573c8.061 4.304 13.836 15.919 13.836 29.573z" fill="#0a4499"/><path d="m460 100-44 190c0 11.046-45.219 20-101 20s-101-8.954-101-20l-44-190z" fill="#0956c6"/><path d="m458.643 105.858-7.48 32.298-132.48 73.953c-1.705.776-3.663.776-5.369 0l-89.328-40.645c-4.507-2.051-9.409 1.959-8.292 6.784l29.216 126.152c-19.056-3.638-30.91-8.745-30.91-14.4l-39.986-172.667 35.686-17.333h212.6z" fill="#0a4499"/><path d="m428.233 246.824c7.277 26.638-8.419 54.132-35.057 61.409s-54.132-8.419-61.409-35.057 8.419-54.132 35.057-61.409 54.132 8.419 61.409 35.057z" fill="#ffa90b"/><path d="m427.807 245.352c1.42 4.648 2.132 9.333 2.2 13.944.046 3.15-2.118 5.907-5.157 6.737l-.009.003c-4.38 1.197-8.766-2.028-8.836-6.568-.053-3.42-.901-6.366-1.988-9.811-5.725-18.134-24.612-28.853-43.008-24.034-5.661 1.483-10.771 3.78-14.864 7.405-3.907 3.461-10.069 1.692-11.445-3.342-.704-2.576.12-5.327 2.117-7.101 5.919-5.258 13.191-9.18 21.464-11.192 27.265-6.634 51.847 8.832 59.526 33.959z" fill="#ffc14f"/><path d="m416 260c0 19.882-16.118 36-36 36s-36-16.118-36-36 16.118-36 36-36 36 16.118 36 36z" fill="#ffcd71"/><path d="m391.5 281c-17.949 0-32.5-14.551-32.5-32.5 0-8.709 3.425-16.617 9.002-22.452 3.753-1.326 7.791-2.048 11.998-2.048 19.882 0 36 16.118 36 36 0 4.207-.722 8.245-2.048 11.998-5.835 5.577-13.743 9.002-22.452 9.002z" fill="#ffe89c"/><path d="m380 283c-2.761 0-5-2.239-5-5v-36c0-2.761 2.239-5 5-5 2.761 0 5 2.239 5 5v36c0 2.761-2.239 5-5 5z" fill="#ffa90b"/><path d="m414.558 328.992c-4.806 8.707-23.344 35.286-72.028 51.179-41.164 13.438-87.015 13.494-122.992 5.952-5.257-1.102-10.729-.056-15.199 2.922l-76.1 50.7c-37.932-17.428-70.871-43.856-96.083-76.55l149.042-91.968s37.276-22.372 58.423-26.909c38.086-8.173 93.368-3.365 108.718 7.08 1.498.862 2.774 2.012 3.746 3.451 3.212 4.754 4.013 10.725 3.299 13.457-2.245 8.585-23.053 7.847-50.438 12.415-16.832 2.808-27.643 4.693-41.628 7.524-5.402 1.094-5.417 8.812-.016 9.909 42.418 8.614 93.321 18.06 129.698-5.152 11.284-7.2 25.325-19.642 31.848-15.187 7.851 5.361.222 32.134-10.29 51.177z" fill="#ffdecf"/><path d="m32.156 363.194 149.042-91.968s37.276-22.372 58.423-26.909c18.343-3.936 40.676-4.861 60.615-3.596-5.289.682-10.422 1.54-15.305 2.588-23.854 5.119-65.901 30.353-65.901 30.353l-163.925 101.152s-7.87 7.934-22.949-11.62z" fill="#ffbeaa"/><path d="m337.773 246.731c4.434 1.381 8.041 2.947 10.566 4.665 1.498.862 2.774 2.012 3.746 3.451 1.999 2.958 3.064 6.388 3.411 9.216-3.169 3.063-9.55 4.292-16.339 2.754-8.874-2.011-15.083-7.989-13.867-13.353.944-4.162 6.081-6.731 12.483-6.733z" fill="#ffeee5"/><path d="m480 275c0 8.284-6.716 15-15 15s-15-6.716-15-15c0-6.531 4.174-12.087 10-14.146v-160.854h10v160.854c5.826 2.059 10 7.615 10 14.146z" fill="#0a3575"/><path d="m270.736 165.043-146.936-66.856c-5.841-2.657-4.682-11.277 1.653-12.298l137.54-22.169c4.061-.655 7.742 2.481 7.742 6.594v94.729z" fill="#0956c6"/><path d="m508.2 98.187-189.516 86.231c-1.705.776-3.663.776-5.369 0l-62.071-28.243c-17.407-7.92-28.58-25.28-28.58-44.404 0-23.946 17.38-44.352 41.022-48.163l51.283-8.266c.683-.11 1.38-.11 2.063 0l189.516 30.547c6.334 1.02 7.493 9.64 1.652 12.298z" fill="#0a66ea"/><path d="m152.908 380.285 29.139 43.926c3.049 4.596 1.801 10.792-2.789 13.85l-55.662 37.083c-46.501-28.156-83.321-70.694-104.293-121.447l74.05-45.694c4.591-2.833 10.602-1.514 13.585 2.982z" fill="#ffc14f"/><path d="m30.341 376.993c-4.055-7.546-7.742-15.319-11.038-23.295l74.05-45.694c4.591-2.833 10.602-1.514 13.585 2.982l9.917 14.95c-2.175-.126-4.408.391-6.398 1.619z" fill="#ffb52d"/><path d="m136.215 146.574c1.64-2.222 4.771-2.693 6.992-1.053l14.328 10.578c2.222 1.64 2.693 4.771 1.053 6.992-1.64 2.222-4.771 2.693-6.992 1.053l-14.328-10.578c-2.222-1.64-2.693-4.771-1.053-6.992zm16.23 41.753c-.411-2.731-2.958-4.611-5.689-4.2l-38.146 5.744c-2.731.411-4.611 2.958-4.2 5.689s2.958 4.611 5.689 4.2l38.146-5.744c2.73-.411 4.611-2.958 4.2-5.689zm13.301 22.308c-2.222-1.64-5.352-1.169-6.992 1.053l-10.578 14.328c-1.64 2.222-1.169 5.352 1.053 6.992s5.352 1.169 6.992-1.053l10.578-14.328c1.64-2.221 1.169-5.351-1.053-6.992z" fill="#f0e8e5"/></g></svg>